# xmcd
#
# Track frame offsets: 
#        150
#        18708
#        41468
#        60231
#        84323
#        98578
#        112083
#        126527
#        146855
#        158325
#
# Disc length: 2248 seconds
#
# Revision: 0
# Processed by: cddbd v1.5.2PL0 Copyright (c) Steve Scherf et al.
# Submitted via: ExactAudioCopy v1.3
#
DISCID=7d08c60a
DTITLE=Blind Lemon Gators - Gatorville
DYEAR=2019
DGENRE=Blues
TTITLE0=Blues Man's Shoes
TTITLE1=A Little Death Around the Eyes
TTITLE2=All I Ever Wanted
TTITLE3=Goodnight Irene
TTITLE4=Hurt
TTITLE5=Gravy Train
TTITLE6=A Better Land
TTITLE7=Ain't Got You
TTITLE8=Wicked Charm
TTITLE9=The Ballad of Trigarelli
EXTD=
EXTT0=
EXTT1=
EXTT2=
EXTT3=
EXTT4=
EXTT5=
EXTT6=
EXTT7=
EXTT8=
EXTT9=
PLAYORDER=
